# xmcd
#
# Track frame offsets: 
#        150
#        43385
#        69099
#        87233
#        147606
#        168579
#
# Disc length: 3059 seconds
#
# Revision: 0
# Processed by: cddbd v1.5.2PL0 Copyright (c) Steve Scherf et al.
# Submitted via: ExactAudioCopy v0.99pb5
#
DISCID=540bf106
DTITLE=Diagram A - Go-Dead
DYEAR=2009
DGENRE=Power Electronics
TTITLE0=Untitled
TTITLE1=Untitled
TTITLE2=Untitled
TTITLE3=Untitled
TTITLE4=Untitled
TTITLE5=Untitled
EXTD=
EXTT0=
EXTT1=
EXTT2=
EXTT3=
EXTT4=
EXTT5=
PLAYORDER=
